<svg width="85" height="38" viewBox="0 0 85 38" fill="none" xmlns="http://www.w3.org/2000/svg">
<path d="M81.3977 36.8303L79.4414 33.4113L80.4812 33.418L81.8578 36.0019L83.2503 33.4359L84.2901 33.4426L82.3159 36.8304L82.3086 37.9572L81.3904 37.9512L81.3977 36.8303Z" fill="white"/>
<path d="M74.8309 35.6175C74.833 35.2951 74.8957 34.9952 75.0192 34.7179C75.1427 34.4387 75.3199 34.1975 75.5511 33.9943C75.7841 33.7892 76.0671 33.6288 76.4 33.5132C76.7348 33.3975 77.1127 33.3411 77.5336 33.3438C77.9025 33.3462 78.2401 33.386 78.5467 33.4633C78.8552 33.5387 79.1412 33.6535 79.4047 33.8077L78.9774 34.5002C78.8985 34.4475 78.8071 34.4006 78.7031 34.3594C78.601 34.3181 78.4912 34.2836 78.3735 34.2558C78.2579 34.2261 78.1373 34.2031 78.0119 34.1869C77.8884 34.1706 77.7659 34.1621 77.6442 34.1613C77.3507 34.1594 77.0888 34.1944 76.8586 34.2663C76.6283 34.3363 76.4336 34.4364 76.2744 34.5667C76.1172 34.6951 75.9964 34.8497 75.9122 35.0307C75.83 35.2098 75.7881 35.4074 75.7867 35.6237C75.7853 35.8477 75.8264 36.0536 75.9102 36.2415C75.9939 36.4293 76.1155 36.5923 76.2749 36.7305C76.4362 36.8667 76.6325 36.9742 76.8637 37.0529C77.0969 37.1297 77.3602 37.1691 77.6537 37.171C77.787 37.1718 77.9193 37.163 78.0507 37.1446C78.1822 37.1261 78.3088 37.1009 78.4307 37.0688C78.5545 37.0349 78.6735 36.9951 78.7877 36.9495C78.902 36.9019 79.0085 36.8505 79.1074 36.7951L79.5258 37.493C79.2776 37.6497 78.991 37.7724 78.666 37.8611C78.341 37.9478 77.996 37.99 77.6311 37.9877C77.1657 37.9847 76.7577 37.9222 76.407 37.8002C76.0564 37.6762 75.7639 37.5083 75.5297 37.2963C75.2955 37.0824 75.1195 36.8321 75.0016 36.5455C74.8857 36.2571 74.8288 35.9477 74.8309 35.6175Z" fill="white"/>
<path d="M69.7158 33.3484L70.634 33.3543L73.4456 34.8498L73.4552 33.3726L74.3734 33.3785L74.3441 37.9057L73.4259 37.8997L73.4393 35.823L70.6277 34.3362L70.6047 37.8815L69.6866 37.8756L69.7158 33.3484Z" fill="white"/>
<path d="M65.3213 33.3201L69.1765 33.345L69.1713 34.1502L66.2343 34.1312L66.2284 35.0349L68.8295 35.0517L68.8246 35.8077L66.2235 35.7909L66.2154 37.0509L69.2133 37.0702L69.2081 37.8726L65.292 37.8473L65.3213 33.3201Z" fill="white"/>
<path d="M59.5995 35.5047C59.6016 35.186 59.6634 34.8891 59.7849 34.6137C59.9064 34.3364 60.0827 34.0962 60.3138 33.893C60.5449 33.6898 60.8279 33.5304 61.1627 33.4147C61.4995 33.2991 61.8841 33.2427 62.3167 33.2455C62.4731 33.2465 62.6294 33.2562 62.7857 33.2746C62.944 33.2911 63.0993 33.3172 63.2516 33.3529C63.4058 33.3887 63.5552 33.434 63.6997 33.4891C63.8461 33.5421 63.9847 33.6058 64.1156 33.68L63.6882 34.3724C63.6093 34.3256 63.5198 34.2835 63.4196 34.2462C63.3194 34.2069 63.2115 34.1743 63.0958 34.1485C62.9821 34.1207 62.8634 34.0997 62.7399 34.0853C62.6184 34.071 62.4958 34.0635 62.3722 34.0627C62.0864 34.0608 61.8313 34.0959 61.6068 34.1678C61.3824 34.2378 61.1925 34.338 61.0372 34.4683C60.8818 34.5967 60.7631 34.7513 60.6808 34.9323C60.5985 35.1133 60.5567 35.3119 60.5553 35.5282C60.5538 35.7522 60.595 35.9581 60.6787 36.146C60.7625 36.3338 60.8821 36.4959 61.0377 36.632C61.1932 36.7682 61.3818 36.8756 61.6033 36.9543C61.8249 37.0311 62.0728 37.0703 62.347 37.0721C62.5652 37.0735 62.7652 37.0507 62.947 37.0036C63.1289 36.9545 63.2877 36.8851 63.4234 36.7952C63.5592 36.7053 63.6699 36.5969 63.7557 36.47C63.8415 36.3412 63.8985 36.1967 63.9265 36.0366L62.345 36.0264L62.3499 35.2704L64.7569 35.286L64.7569 35.2889L64.7598 35.286C64.8066 35.518 64.8196 35.7441 64.7989 35.9641C64.7801 36.1821 64.7285 36.3884 64.6442 36.5829C64.5619 36.7755 64.4488 36.9524 64.3048 37.1137C64.1609 37.275 63.9891 37.4139 63.7894 37.5304C63.5898 37.645 63.3633 37.7343 63.1099 37.7983C62.8565 37.8604 62.5792 37.8904 62.278 37.8885C61.857 37.8858 61.4799 37.8215 61.1467 37.6958C60.8153 37.5701 60.5345 37.3993 60.3042 37.1834C60.0738 36.9676 59.8978 36.7154 59.7761 36.4269C59.6563 36.1384 59.5974 35.831 59.5995 35.5047Z" fill="white"/>
<path d="M56.5909 33.2635L57.5641 33.2698L59.7246 37.8111L58.76 37.8049L58.4029 37.0408L55.7584 37.0237L55.403 37.7832L54.4356 37.777L56.5909 33.2635ZM58.0457 36.2825L57.08 34.2196L56.1138 36.27L58.0457 36.2825Z" fill="white"/>
<path d="M49.7012 33.219L50.6194 33.2249L50.5953 36.9469L53.2282 36.9639L53.223 37.7691L49.6719 37.7462L49.7012 33.219Z" fill="white"/>
<path d="M46.3682 33.1975L47.3414 33.2037L49.5019 37.7451L48.5374 37.7389L48.1802 36.9747L45.5358 36.9577L45.1804 37.7172L44.2129 37.7109L46.3682 33.1975ZM47.8231 36.2164L46.8573 34.1536L45.8911 36.2039L47.8231 36.2164Z" fill="white"/>
<path d="M41.7813 33.9732L40.11 33.9624L40.1152 33.1572L44.376 33.1848L44.3708 33.99L42.6995 33.9792L42.6754 37.7012L41.7572 37.6952L41.7813 33.9732Z" fill="white"/>
<path d="M38.8604 33.149L39.7843 33.155L39.7551 37.6822L38.8311 37.6762L38.8604 33.149Z" fill="white"/>
<path d="M33.2538 35.3345C33.2559 35.0159 33.3177 34.7189 33.4392 34.4435C33.5607 34.1663 33.737 33.926 33.9681 33.7228C34.1992 33.5196 34.4822 33.3602 34.817 33.2446C35.1538 33.1289 35.5384 33.0725 35.971 33.0753C36.1274 33.0763 36.2837 33.086 36.44 33.1044C36.5983 33.1209 36.7536 33.147 36.9059 33.1827C37.0601 33.2185 37.2095 33.2639 37.354 33.3189C37.5004 33.372 37.639 33.4356 37.7698 33.5099L37.3425 34.2023C37.2636 34.1554 37.1741 34.1133 37.0739 34.076C36.9737 34.0367 36.8658 34.0042 36.7501 33.9783C36.6364 33.9505 36.5177 33.9295 36.3942 33.9152C36.2727 33.9009 36.1501 33.8933 36.0265 33.8925C35.7407 33.8907 35.4856 33.9257 35.2611 33.9976C35.0367 34.0676 34.8468 34.1678 34.6915 34.2981C34.5361 34.4265 34.4174 34.5812 34.3351 34.7622C34.2528 34.9431 34.211 35.1418 34.2096 35.358C34.2081 35.582 34.2493 35.788 34.333 35.9758C34.4168 36.1637 34.5364 36.3257 34.692 36.4619C34.8475 36.5981 35.036 36.7055 35.2576 36.7842C35.4792 36.8609 35.7271 36.9002 36.0013 36.9019C36.2195 36.9033 36.4195 36.8805 36.6013 36.8334C36.7832 36.7844 36.942 36.7149 37.0777 36.625C37.2135 36.5351 37.3242 36.4267 37.41 36.2998C37.4958 36.171 37.5528 36.0266 37.5808 35.8665L35.9993 35.8562L36.0042 35.1003L38.4112 35.1158L38.4112 35.1187L38.4141 35.1158C38.4609 35.3479 38.4739 35.5739 38.4532 35.7939C38.4344 36.012 38.3828 36.2183 38.2985 36.4128C38.2162 36.6053 38.1031 36.7823 37.9591 36.9435C37.8152 37.1048 37.6434 37.2437 37.4437 37.3602C37.2441 37.4748 37.0176 37.5641 36.7642 37.6281C36.5108 37.6902 36.2335 37.7203 35.9323 37.7183C35.5113 37.7156 35.1342 37.6514 34.801 37.5256C34.4696 37.3999 34.1888 37.2291 33.9585 37.0133C33.7281 36.7974 33.5521 36.5453 33.4304 36.2568C33.3106 35.9683 33.2517 35.6608 33.2538 35.3345Z" fill="white"/>
<path d="M32.0146 33.1045L32.9386 33.1105L32.9094 37.6377L31.9854 37.6317L32.0146 33.1045Z" fill="white"/>
<path d="M27.2363 33.0736L28.896 33.0843C29.3807 33.0875 29.8013 33.1423 30.1579 33.2489C30.5144 33.3555 30.8089 33.507 31.0413 33.7036C31.2756 33.8982 31.4489 34.1349 31.561 34.4137C31.6751 34.6906 31.731 35.0019 31.7287 35.3475C31.7266 35.6758 31.6677 35.9795 31.552 36.2588C31.4362 36.5361 31.2609 36.7764 31.0259 36.9795C30.791 37.1808 30.4945 37.3382 30.1365 37.4517C29.7785 37.5634 29.3572 37.6176 28.8725 37.6145L27.2071 37.6008L27.2363 33.0736ZM29.0978 36.8194C29.372 36.8211 29.6126 36.7879 29.8197 36.7197C30.0268 36.6496 30.1993 36.5503 30.3372 36.4218C30.4771 36.2934 30.5824 36.1376 30.6531 35.9546C30.7238 35.7716 30.7599 35.5672 30.7613 35.3413C30.7628 35.1192 30.7293 34.9191 30.6609 34.741C30.5926 34.561 30.4893 34.4087 30.351 34.2842C30.2148 34.1578 30.0435 34.0602 29.8373 33.9913C29.6312 33.9223 29.391 33.887 29.1168 33.8852L28.1493 33.879L28.1304 36.8131L29.0978 36.8194Z" fill="white"/>
<path d="M25.1057 0H1.19038V5.96412H14.9417L4.77769 15.5067C4.77769 15.5067 0 19.5124 0 25.6617C0 32.2222 6.99147 34.6492 6.99147 34.6492C13.0349 36.5413 19.7248 35.1883 22.7142 33.3991C28.8322 29.4682 31.9298 26.9451 37.0634 22.0673L44.8359 31.0135L52.3164 31.0849L41.8465 17.8924L51.4126 8.34977H44.238C35.2541 16.554 29.8745 21.3168 19.7248 28.0314C17.7749 29.3277 12.4425 31.2378 8.76896 28.0314C5.78311 25.4252 8.17647 21.4949 9.36146 20.1036C11.376 17.7385 25.1057 4.7713 25.1057 4.7713V0Z" fill="white"/>
<path d="M26.8838 0H33.0445V31.0837H26.8838V0Z" fill="white"/>
<path d="M52.0869 8.12097H58.2476V31.0837H52.0869V8.12097Z" fill="white"/>
<path d="M53.4863 6.16089L59.7139 0.000161852L84.29 0.000161732L84.29 6.16089L53.4863 6.16089Z" fill="white"/>
<path d="M71.92 7.56104C84.9508 7.56104 83.9944 21.3667 83.9944 21.3667H66.1817C66.1817 21.3667 67.0186 26.4842 72.7569 26.3653C77.0514 26.2762 78.8462 24.1133 78.8539 24.104L82.2012 27.7934C82.193 27.8051 79.6793 31.3638 72.7569 31.3638C59.1317 31.3638 59.3673 19.3492 59.3675 19.3434C59.3675 19.3434 59.3675 7.56107 71.92 7.56104ZM71.8005 12.4406C66.0636 12.3191 66.0622 17.5557 66.0622 17.5582H77.7779C77.7779 17.5582 78.017 12.4406 71.8005 12.4406Z" fill="white"/>
</svg>
