<svg width="72" height="33" viewBox="0 0 72 33" fill="none" xmlns="http://www.w3.org/2000/svg">
<path d="M69.5294 31.4602L67.8584 28.5397L68.7466 28.5454L69.9225 30.7526L71.1119 28.5607L72.0001 28.5664L70.3138 31.4603L70.3076 32.4228L69.5233 32.4177L69.5294 31.4602Z" fill="#2D2D2D"/>
<path d="M63.92 30.4244C63.9218 30.1489 63.9754 29.8928 64.0808 29.6559C64.1863 29.4174 64.3377 29.2114 64.5351 29.0378C64.7342 28.8626 64.9759 28.7256 65.2603 28.6268C65.5463 28.528 65.8691 28.4798 66.2286 28.4821C66.5437 28.4842 66.8321 28.5182 67.094 28.5842C67.3575 28.6486 67.6018 28.7467 67.8269 28.8784L67.4619 29.4699C67.3945 29.4249 67.3164 29.3848 67.2276 29.3496C67.1404 29.3144 67.0466 29.285 66.9461 29.2612C66.8473 29.2358 66.7443 29.2162 66.6372 29.2023C66.5317 29.1884 66.427 29.1812 66.3231 29.1805C66.0724 29.1789 65.8487 29.2088 65.652 29.2702C65.4553 29.3299 65.289 29.4155 65.153 29.5267C65.0187 29.6364 64.9156 29.7685 64.8436 29.9231C64.7734 30.0761 64.7376 30.2449 64.7364 30.4296C64.7352 30.621 64.7704 30.7969 64.8419 30.9573C64.9134 31.1178 65.0173 31.257 65.1534 31.375C65.2912 31.4914 65.4589 31.5832 65.6564 31.6504C65.8556 31.7161 66.0805 31.7497 66.3312 31.7513C66.445 31.752 66.5581 31.7445 66.6703 31.7287C66.7826 31.713 66.8908 31.6914 66.9949 31.664C67.1006 31.635 67.2023 31.601 67.2999 31.5621C67.3975 31.5215 67.4885 31.4775 67.5729 31.4302L67.9303 32.0264C67.7183 32.1603 67.4735 32.2651 67.1959 32.3408C66.9183 32.4149 66.6236 32.4509 66.3119 32.4489C65.9144 32.4463 65.5658 32.393 65.2663 32.2888C64.9668 32.1829 64.717 32.0394 64.5169 31.8583C64.3168 31.6756 64.1665 31.4618 64.0658 31.2171C63.9668 30.9706 63.9181 30.7064 63.92 30.4244Z" fill="#2D2D2D"/>
<path d="M59.5518 28.486L60.3361 28.4911L62.7377 29.7685L62.7459 28.5066L63.5302 28.5117L63.5052 32.3788L62.7209 32.3738L62.7324 30.5998L60.3306 29.3298L60.3111 32.3582L59.5268 32.3531L59.5518 28.486Z" fill="#2D2D2D"/>
<path d="M55.7969 28.4617L59.09 28.483L59.0855 29.1708L56.5767 29.1546L56.5717 29.9266L58.7935 29.9409L58.7894 30.5867L56.5676 30.5723L56.5606 31.6486L59.1214 31.6651L59.1169 32.3505L55.7719 32.3289L55.7969 28.4617Z" fill="#2D2D2D"/>
<path d="M50.9083 30.3279C50.9101 30.0558 50.9629 29.8021 51.0667 29.5669C51.1705 29.33 51.3211 29.1248 51.5185 28.9512C51.7159 28.7776 51.9576 28.6415 52.2436 28.5427C52.5312 28.4439 52.8598 28.3958 53.2293 28.3981C53.3629 28.399 53.4964 28.4073 53.63 28.423C53.7651 28.4371 53.8978 28.4594 54.0279 28.4899C54.1596 28.5204 54.2872 28.5592 54.4106 28.6062C54.5357 28.6515 54.6541 28.7059 54.7659 28.7693L54.4008 29.3608C54.3334 29.3208 54.257 29.2848 54.1714 29.2529C54.0858 29.2194 53.9937 29.1915 53.8948 29.1695C53.7977 29.1457 53.6963 29.1278 53.5908 29.1155C53.487 29.1033 53.3823 29.0969 53.2767 29.0962C53.0326 29.0946 52.8147 29.1245 52.6229 29.186C52.4312 29.2458 52.269 29.3313 52.1363 29.4426C52.0037 29.5523 51.9022 29.6844 51.8319 29.839C51.7616 29.9936 51.7259 30.1633 51.7247 30.348C51.7235 30.5394 51.7586 30.7153 51.8302 30.8757C51.9017 31.0362 52.0039 31.1746 52.1368 31.2909C52.2696 31.4072 52.4307 31.499 52.6199 31.5662C52.8092 31.6318 53.021 31.6653 53.2552 31.6668C53.4416 31.668 53.6124 31.6485 53.7677 31.6083C53.923 31.5664 54.0587 31.507 54.1747 31.4303C54.2906 31.3535 54.3852 31.2609 54.4585 31.1525C54.5318 31.0425 54.5804 30.9191 54.6044 30.7823L53.2535 30.7736L53.2577 30.1278L55.3137 30.1411L55.3137 30.1436L55.3162 30.1411C55.3562 30.3393 55.3673 30.5324 55.3496 30.7203C55.3335 30.9066 55.2895 31.0828 55.2175 31.249C55.1471 31.4135 55.0505 31.5646 54.9275 31.7024C54.8046 31.8401 54.6578 31.9588 54.4873 32.0583C54.3168 32.1561 54.1233 32.2324 53.9068 32.2871C53.6904 32.3401 53.4535 32.3658 53.1962 32.3642C52.8367 32.3618 52.5145 32.307 52.2299 32.1996C51.9468 32.0922 51.707 31.9463 51.5102 31.7619C51.3135 31.5776 51.1631 31.3621 51.0591 31.1157C50.9568 30.8693 50.9065 30.6067 50.9083 30.3279Z" fill="#2D2D2D"/>
<path d="M48.3385 28.4135L49.1698 28.4189L51.0153 32.2981L50.1914 32.2928L49.8863 31.6401L47.6274 31.6255L47.3238 32.2743L46.4975 32.2689L48.3385 28.4135ZM49.5812 30.9923L48.7563 29.2303L47.931 30.9817L49.5812 30.9923Z" fill="#2D2D2D"/>
<path d="M42.4541 28.3755L43.2384 28.3806L43.2179 31.5599L45.4669 31.5744L45.4624 32.2622L42.4291 32.2426L42.4541 28.3755Z" fill="#2D2D2D"/>
<path d="M39.607 28.3571L40.4384 28.3625L42.2838 32.2417L41.4599 32.2364L41.1549 31.5837L38.896 31.5691L38.5924 32.2178L37.766 32.2125L39.607 28.3571ZM40.8498 30.9359L40.0249 29.1738L39.1995 30.9252L40.8498 30.9359Z" fill="#2D2D2D"/>
<path d="M35.6897 29.0197L34.2622 29.0104L34.2666 28.3226L37.9061 28.3461L37.9016 29.034L36.4741 29.0247L36.4535 32.204L35.6692 32.1989L35.6897 29.0197Z" fill="#2D2D2D"/>
<path d="M33.1934 28.3157L33.9826 28.3208L33.9576 32.1879L33.1684 32.1828L33.1934 28.3157Z" fill="#2D2D2D"/>
<path d="M28.4044 30.1825C28.4062 29.9103 28.459 29.6566 28.5627 29.4214C28.6665 29.1846 28.8172 28.9794 29.0146 28.8058C29.212 28.6322 29.4537 28.496 29.7397 28.3973C30.0273 28.2985 30.3559 28.2503 30.7254 28.2527C30.859 28.2536 30.9925 28.2619 31.126 28.2776C31.2612 28.2916 31.3939 28.3139 31.524 28.3445C31.6557 28.375 31.7833 28.4138 31.9067 28.4608C32.0318 28.5061 32.1502 28.5605 32.262 28.6239L31.8969 29.2153C31.8295 29.1753 31.7531 29.1394 31.6675 29.1075C31.5819 29.0739 31.4897 29.0461 31.3909 29.024C31.2938 29.0003 31.1924 28.9823 31.0869 28.9701C30.9831 28.9579 30.8784 28.9514 30.7728 28.9508C30.5287 28.9492 30.3108 28.9791 30.119 29.0406C29.9273 29.1003 29.7651 29.1859 29.6324 29.2972C29.4998 29.4069 29.3983 29.539 29.328 29.6936C29.2577 29.8482 29.222 30.0179 29.2208 30.2026C29.2196 30.3939 29.2547 30.5698 29.3263 30.7303C29.3978 30.8908 29.5 31.0292 29.6329 31.1455C29.7657 31.2618 29.9268 31.3536 30.116 31.4208C30.3053 31.4863 30.517 31.5199 30.7513 31.5214C30.9377 31.5226 31.1085 31.5031 31.2638 31.4628C31.4191 31.4209 31.5548 31.3616 31.6707 31.2848C31.7867 31.2081 31.8813 31.1155 31.9546 31.0071C32.0279 30.897 32.0765 30.7736 32.1005 30.6369L30.7496 30.6282L30.7538 29.9824L32.8098 29.9957L32.8098 29.9982L32.8123 29.9957C32.8522 30.1939 32.8634 30.387 32.8457 30.5749C32.8296 30.7612 32.7856 30.9374 32.7136 31.1035C32.6432 31.268 32.5466 31.4192 32.4236 31.5569C32.3007 31.6947 32.1539 31.8133 31.9834 31.9128C31.8129 32.0107 31.6194 32.087 31.4029 32.1417C31.1865 32.1947 30.9496 32.2204 30.6923 32.2187C30.3328 32.2164 30.0106 32.1615 29.726 32.0541C29.4429 31.9467 29.2031 31.8009 29.0063 31.6165C28.8096 31.4321 28.6592 31.2167 28.5552 30.9703C28.4529 30.7238 28.4026 30.4612 28.4044 30.1825Z" fill="#2D2D2D"/>
<path d="M27.3457 28.2779L28.135 28.283L28.11 32.1501L27.3207 32.145L27.3457 28.2779Z" fill="#2D2D2D"/>
<path d="M23.2646 28.2515L24.6823 28.2607C25.0963 28.2633 25.4556 28.3102 25.7602 28.4012C26.0648 28.4923 26.3163 28.6218 26.5148 28.7896C26.715 28.9559 26.863 29.1581 26.9587 29.3962C27.0562 29.6327 27.104 29.8986 27.102 30.1939C27.1002 30.4743 27.0499 30.7337 26.951 30.9723C26.8522 31.2092 26.7024 31.4144 26.5017 31.5879C26.301 31.7598 26.0477 31.8943 25.742 31.9913C25.4362 32.0866 25.0763 32.133 24.6623 32.1303L23.2397 32.1186L23.2646 28.2515ZM24.8547 31.4511C25.0889 31.4526 25.2945 31.4243 25.4714 31.366C25.6482 31.3061 25.7956 31.2213 25.9134 31.1116C26.0329 31.0018 26.1228 30.8688 26.1832 30.7125C26.2436 30.5562 26.2744 30.3815 26.2757 30.1885C26.2769 29.9988 26.2483 29.8279 26.1899 29.6758C26.1315 29.522 26.0433 29.392 25.9252 29.2856C25.8088 29.1777 25.6625 29.0942 25.4864 29.0354C25.3103 28.9765 25.1051 28.9463 24.8709 28.9448L24.0445 28.9394L24.0283 31.4458L24.8547 31.4511Z" fill="#2D2D2D"/>
<path d="M21.4452 0H1.01682V5.09452H12.7631L4.08107 13.2458C4.08107 13.2458 0 16.6673 0 21.9201C0 27.5241 5.97207 29.5972 5.97207 29.5972C11.1344 31.2134 16.8488 30.0577 19.4023 28.5293C24.6283 25.1716 27.2742 23.0164 31.6594 18.8497L38.2986 26.4915L44.6883 26.5526L35.745 15.2836L43.9164 7.13233H37.7879C30.1139 14.1403 25.5186 18.2087 16.8488 23.9443C15.1832 25.0515 10.6283 26.6831 7.4904 23.9443C4.9399 21.7181 6.98429 18.3608 7.99651 17.1724C9.71727 15.1521 21.4452 4.07562 21.4452 4.07562V0Z" fill="#2D2D2D"/>
<path d="M22.9639 0H28.2263V26.5515H22.9639V0Z" fill="#2D2D2D"/>
<path d="M44.4912 6.93689H49.7537V26.5515H44.4912V6.93689Z" fill="#2D2D2D"/>
<path d="M45.6875 5.26247L51.007 9.30422e-06L71.9998 9.34027e-06L71.9998 5.26247L45.6875 5.26247Z" fill="#2D2D2D"/>
<path d="M61.4335 6.45848C72.5643 6.45848 71.7474 18.2512 71.7474 18.2512H56.5319C56.5319 18.2512 57.2467 22.6226 62.1483 22.5209C65.8167 22.4449 67.3498 20.5973 67.3563 20.5894L70.2156 23.7409C70.2086 23.7508 68.0615 26.7907 62.1483 26.7907C50.5098 26.7907 50.7111 16.5279 50.7112 16.5229C50.7112 16.5229 50.7112 6.45851 61.4335 6.45848ZM61.3314 10.6266C56.431 10.5228 56.4298 14.9959 56.4298 14.998H66.4373C66.4373 14.998 66.6415 10.6266 61.3314 10.6266Z" fill="#2D2D2D"/>
</svg>
