<svg width="15" height="15" viewBox="0 0 15 15" fill="none" xmlns="http://www.w3.org/2000/svg">
<path d="M6.72063 6.65685C6.3301 7.04738 6.3301 7.68054 6.72063 8.07107L13.0846 14.435C13.4751 14.8256 14.1083 14.8256 14.4988 14.435C14.8893 14.0445 14.8893 13.4113 14.4988 13.0208L8.84195 7.36396L14.4988 1.70711C14.8893 1.31658 14.8893 0.683417 14.4988 0.292892C14.1083 -0.0976319 13.4751 -0.0976319 13.0846 0.292892L6.72063 6.65685ZM8.42773 7.36396V6.36396H7.42773V7.36396V8.36396H8.42773V7.36396Z" fill="#2D2D2D"/>
<path d="M8.14188 8.05394C8.52848 7.65953 8.52214 7.0264 8.12773 6.6398L1.70039 0.339857C1.30597 -0.0467392 0.672842 -0.0404018 0.286246 0.354012C-0.10035 0.748425 -0.094013 1.38156 0.300401 1.76815L6.01359 7.36811L0.413641 13.0813C0.0270445 13.4757 0.0333819 14.1088 0.427796 14.4954C0.822209 14.882 1.45534 14.8757 1.84194 14.4813L8.14188 8.05394ZM6.42773 7.36396L6.43774 8.36391L7.43774 8.3539L7.42773 7.35395L7.41773 6.354L6.41773 6.36401L6.42773 7.36396Z" fill="#2D2D2D"/>
</svg>
